<svg xmlns="http://www.w3.org/2000/svg" viewBox="0 0 512 512">
  <g transform="translate(0 512) scale(.1 -.1)" fill="currentColor">
    <path d="M1075 3959c-55-5-110-13-123-19-13-5-31-10-41-10s-43-7-72-16c-51-15-72-23-174-62-49-18-168-74-175-82-3-3-25-16-50-29-25-13-64-37-88-52-24-16-47-29-53-29-5 0-9-4-9-10 0-5-6-10-14-10s-21-6-28-12c-8-7-23-18-33-25-161-98-156-94-153-127l3-31 285-5c157-3 291-9 298-13 12-8 17-93 6-121-5-14-44-16-330-16H0v-874-875l1393-4c888-2 1403-7 1422-13 55-19 44-49-43-126l-42-38h-108c-103 0-109-1-119-22-6-14-8-90-5-193 6-225 15-238 124-165 33 22 62 40 65 40 2 0 9 5 16 10 48 41 62 50 73 50 7 0 14 3 16 8 5 10 66 52 77 52 5 0 11 3 13 8 5 10 66 52 77 52 5 0 11 4 13 8 2 5 98 71 213 147 116 76 212 143 213 147 2 4 8 8 14 8s27 13 48 30c21 16 41 30 44 30 6 0 64 38 76 50 3 3 14 10 25 16 12 6 21 23 22 40 3 27-6 34-99 94-55 36-106 67-112 69-6 2-13 7-16 11-3 3-66 46-140 95-307 200-320 209-320 231 0 12 10 32 23 46 12 13 39 44 61 69 253 288 278 313 307 306 13-3 42-30 64-59s51-64 65-78c15-15 48-55 75-91 28-35 59-73 70-84 16-17 61-70 108-130 58-74 47-70 170-73 96-3 117-1 130 13 16 15 17 80 17 731 0 474-3 722-10 735-14 26-46 24-78-5-114-102-128-110-150-83-6 7-12 46-14 87l-3 75-47 32c-26 17-69 39-95 49-27 10-50 21-53 25-3 3-25 10-50 14-25 4-51 12-59 19-19 15-333 15-352 0-8-7-34-15-59-19-24-4-51-11-60-16-8-4-37-18-65-31-27-13-51-26-53-30-2-5-8-8-14-8-13 0-132-71-136-82-2-4-8-8-13-8s-66-34-135-75-129-75-135-75c-5 0-9-4-9-10 0-5-11-12-25-16-14-3-25-10-25-14s-8-10-17-13c-20-6-75-38-83-48-3-4-15-9-27-13-13-4-23-12-23-17s-5-9-10-9c-6 0-107-58-226-130-119-71-220-130-224-130-5 0-15-6-22-12-14-13-28-21-97-60-20-11-43-26-52-34-8-8-19-14-22-14-4 0-63-34-131-75s-129-75-134-75-12-4-14-8c-1-4-19-18-39-30-30-18-51-22-127-22-77 0-93 3-100 18-5 9-7 24-4 32 9 31 36 40 118 40 53 0 87 5 96 13 7 7 33 28 58 47 24 19 52 42 60 50 9 8 32 28 53 44 64 51 52 76-71 146-70 40-76 49-56 79 14 19 24 21 140 21 68 0 124-4 124-8s-11-23-25-42c-28-37-31-60-13-78 20-20 47-14 108 23 32 19 60 35 64 35 3 0 15 8 26 17 17 15 20 30 20 100 0 83 12 113 46 113 8 0 14 5 14 10 0 6 4 10 10 10 5 0 47 22 92 49 46 27 108 62 138 78 190 103 200 111 200 141 0 23-12 34-79 75-44 26-84 47-89 47-6 0-12 3-14 8-6 14-156 81-253 113-33 11-67 24-75 28-9 5-40 12-70 16-30 4-60 11-65 15-13 11-257 30-349 29-39-1-116-6-171-10z"/>
    <path d="M0 1365c0-34 12-46 25-24 9 14-3 59-15 59-6 0-10-16-10-35zM3290 1227c-14-7-27-14-30-17-3-4-57-37-120-75-187-112-194-131-71-194 114-58 145-75 151-82 3-4 16-10 30-14s27-11 30-14c3-4 32-21 65-37 73-37 186-98 214-116 19-11 21-23 21-96 0-59 4-88 14-98 12-11 51-14 189-14 173 0 174 0 187 24 10 20 10 28-3 46-15 21-142 162-222 245-22 23-63 68-91 101-28 32-71 80-95 105-24 26-82 88-129 139-47 50-92 95-100 100-8 4-26 3-40-3z"/>
  </g>
</svg>
